#tb 0: 1/25
#media_type 0: video
#codec_id 0: rawvideo
#dimensions 0: 640x360
#sar 0: 0/1
0,          0,          0,        1,   691200, 0x00000000
0,         25,         25,        1,   691200, 0x1c4a6f24
0,         50,         50,        1,   691200, 0x1fa0474c
